<svg version="1.2" xmlns="http://www.w3.org/2000/svg" viewBox="0 0 1280 886" width="1280" height="886"><style>.a{fill:#563e33}</style><path fill-rule="evenodd" class="a" d="m653.3 0h61.6l29.6 52 29.9 0.2 29.9 0.3 15.2 26.6 15.2 26.5-14.9 25.4c-8.1 14-14.8 25.7-14.8 26 0 0.3 6.5 11.7 14.4 25.5l14.3 25 29.9 0.3 29.9 0.2 13.9-24c7.6-13.1 14.4-24.7 15-25.6 1.1-1.5 4-1.6 31.8-0.9l30.6 0.7 15.2 26.5 15.1 26.4-15.3 26.4-15.3 26.5h-31l-31 0.1-12.5 21.6c-6.9 11.9-13.3 23-14.3 24.7l-1.8 3.1 14.1 24.8 14.2 24.7h59.3l14.8 25.9 14.8 25.8 12.1 0.6c6.7 0.4 19.6 0.7 28.7 0.7h16.6l15-26 15-25.9 31-0.1h31l30 52h59.2l15.2 26.6c8.4 14.6 15 27.1 14.7 27.8-0.2 0.6-7.2 12.6-15.4 26.6l-14.9 25.5-29.5-0.4-29.4-0.4-15.1 25.9-15 25.9-29.6 0.3-29.5 0.2-30.4 52h-59.3l-13.5 23.1c-7.4 12.8-13.9 23.9-14.3 24.8-0.6 1.3 3.1 8.6 13.9 27.4l14.7 25.7 18.6 0.1c10.2 0.1 23.7 0.4 30 0.8l11.5 0.6 14.7 25.5c8.1 14 14.8 26.1 14.8 26.8 0.1 0.6-6.7 12.9-15.1 27.2l-15.1 26h-59.3l-15 25.7-15 25.8-31 0.3-30.9 0.2-29.6-52h-59.5l-14.8-26-14.9-26h-28.1l-28.1 0.1-15 25.9-15 26h-59.3l-30.4 52h-61.4l-14.8-26-14.9-26h-59.4l-14.4-25.2-14.5-25.3-27.9-0.8c-26.8-0.8-28-0.8-29.5 1-0.8 1.1-7.8 12.8-15.5 26.1l-14 24.2h-62.1l-14.8-26-14.9-26h-59.3l-30.6-53.2 6.5-11.1c3.6-6.2 10.3-17.8 14.9-25.8l8.5-14.5-14.6-25.5-14.6-25.4-29.9-0.5-29.8-0.5-15-26c-8.2-14.3-14.7-26.7-14.5-27.6 0.2-0.9 6.8-12.5 14.6-25.8 7.7-13.3 14.1-24.6 14.1-25.1 0-0.4-6.3-11.8-14.1-25.4l-14.1-24.6h-59.3l-15-26.1c-8.3-14.4-15.1-26.7-15.2-27.3-0.1-0.6 6.6-12.8 15-27.1l15.3-26 59.8-1 15-25.8 15.1-25.9 28.2 0.3c24.1 0.3 28.4 0.2 29.6-1.1 0.8-0.8 7.6-12.2 15.2-25.3l13.8-23.8-2.4-4.3c-1.3-2.3-7.8-13.8-14.4-25.4l-12-21.1-30-0.3-29.9-0.3-30.6-53.4 30.6-52.6 30-0.3 29.9-0.3 15-25.9 15-26h61.3l14.9 25.9 14.8 26 59.8 0.6 28.6 50 9.8 0.6c5.4 0.4 18.2 0.7 28.4 0.8l18.7 0.1 15-25.8 15-25.7 29.3-0.3 29.4-0.2 15-26 15-25.9 59.8-0.6 15-25.8zm59.4 3h-57.4l-14.5 25-14.5 25.1 14.1 24.7 14.2 24.7 28.5 0.7c25.8 0.7 28.5 0.6 29.6-0.9 2.6-3.4 28.3-48.1 28.3-49.1 0-0.5-6.4-12.1-14.1-25.6zm-483.7 52.4l-18.5-0.6-14 24.2c-7.7 13.4-14.1 24.9-14.3 25.6-0.3 1.4 24.6 46.2 27.6 49.7 1.4 1.6 3.8 1.7 29.6 1.5l28.1-0.3 14.6-25 14.7-25-2.9-5c-1.6-2.7-8-13.9-14.2-24.7l-11.2-19.8h-10.5c-5.8 0-18.8-0.3-29-0.6zm394.5 0.1l-58-0.4-14.2 24.6-14.3 24.7 14.4 25 14.5 25.1h57.4l14.3-24.7 14.4-24.6-14.3-24.9zm178.3-0.5h-28.3c-21.4 0-28.5 0.3-29.2 1.2-1.4 1.8-26.2 44.4-27.5 47.3-0.9 2.1 0.4 4.9 12.1 25.2 7.2 12.6 13.6 23.6 14.3 24.5 1.1 1.3 5.4 1.6 29.8 2.1l28.6 0.6 14.3-24.7c7.9-13.6 14.4-25.2 14.4-25.7 0-0.6-6.4-12.1-14.2-25.8zm-623.3 52.5l-28.7-0.3-28.7-0.2-6.9 11.7c-3.8 6.5-10.4 17.8-14.7 25.1l-7.7 13.2 14.3 25 14.4 25h29l29-0.1 13.7-23.8c7.6-13 13.9-24.4 14.2-25.2 0.3-0.8-5.9-12.4-13.7-25.9zm178.9 0.2l-28.6-0.5-28.5-0.5-5.5 9.4c-18 30.7-23.8 40.8-23.8 41.3 0 0.8 23.1 41.4 26.6 46.8l2.4 3.7 55.4-0.4 13.8-23.5c7.5-12.9 14.2-24.4 14.9-25.6 0.9-1.9-0.7-5.2-12.8-26.4zm176.9-0.2l-28.6-0.3-28.6-0.2-4.2 7.2c-10 17.3-21.2 36.5-23 39.4l-1.8 3 14.2 25 14.3 24.9 28.9 0.2 29 0.3 14.3-24.7 14.3-24.6zm178.2-0.5h-57.3l-13.7 23.5c-7.5 13-13.9 24.4-14.2 25.3-0.2 1 5.4 12 13.7 26.5l14.2 24.7h57.3l14-24.1c7.7-13.2 14-24.7 14-25.4 0-0.8-6.3-12.4-14-25.9zm-445 52h-57l-14.4 24.7c-8 13.6-14.4 25.2-14.4 25.8 0 0.5 6.2 11.9 13.9 25.2l13.8 24.3h58.3l14.3-24.5c11.1-19.1 14.1-25 13.4-26.4-0.5-1-7-12.5-14.4-25.5zm178 0.1l-28.2-0.1h-28.2l-5.4 9.2c-3 5.1-9.6 16.4-14.6 25.1l-9.2 15.8 14.3 24.9 14.3 25h56.3l14.6-25 14.5-25.1zm177.9 0.4l-28.4-0.3-28.5-0.2-14 24.1c-7.7 13.3-14.1 24.7-14.3 25.4-0.2 0.8 6 12.3 13.6 25.7l13.9 24.3 28.9 0.2 28.9 0.3 28.6-49.2-14.3-25.2zm120.9 0.7c-1.4 1.8-26.2 44.4-27.4 47.1-0.9 2 0.9 5.6 13 26.7l14.1 24.5 7.3 0.6c3.9 0.4 16.9 0.7 28.7 0.8l21.5 0.1 14.8-25.4 14.7-25.4-14-24.3-14-24.4-9.3-0.6c-17.6-1.3-48.4-1-49.4 0.3zm238.5 0.8h-58.3l-13.5 23.1c-7.4 12.8-13.9 24-14.4 25-0.6 1.3 2.5 7.6 13.5 26.8l14.3 25.1h29.1l29-0.1 12.5-21.6c6.9-11.9 13.4-23.1 14.4-24.9l1.9-3.3-14.3-25zm-679.6 50.4c-3.3-0.7-0.8-4.3-23.2 33.9l-9.2 15.8 28.8 50.4 28.6 0.3 28.6 0.2 14.1-24.3c7.7-13.4 14.1-24.8 14.1-25.3 0-0.4-6.4-12-14.1-25.6l-14.1-24.8h-25.3c-13.9 0-26.6-0.3-28.3-0.6zm231.3-0.4h-57.4l-7.1 12c-3.8 6.6-10.1 17.4-14 23.9-3.8 6.6-7 12.5-7 13 0 0.6 6.4 12.4 14.3 26.1l14.2 25h28.5l28.5-0.1 8.1-14.2c4.5-7.8 11-19 14.4-24.8l6.1-10.7zm178.3 0h-57.3l-14 24.1c-7.7 13.3-14.1 24.5-14.3 25-0.2 0.5 6.1 12.1 13.9 25.9l14.3 25h57.1l13.5-23.1c7.4-12.8 13.9-24 14.4-25 0.7-1.4-2.3-7.4-13.4-26.9zm178.7 0.5l-28.6-0.3-28.6-0.2-14.7 25.2-14.6 25.1 14.1 24.9 14.1 24.8h58.3l14.4-24.6c12.6-21.7 14.2-24.9 13.2-26.8-0.7-1.1-7.1-12.5-14.4-25.1zm-623.7 51.5h-57.3l-14.4 24.6-14.3 24.6 2.3 4.2c1.3 2.4 7.8 13.7 14.4 25.3l12 21 28 0.6c21.4 0.5 28.2 0.4 29.1-0.6 1.3-1.4 27.1-45.8 28-48.1 0.4-1-4.8-11.1-13.6-26.6zm139.6 0.3l-17-0.6-2.1 2.9c-1.4 2.1-23.6 39.9-27.9 47.5-0.1 0.3 6.2 11.7 14 25.5l14.4 24.9 27.9 0.3 28 0.2 14.3-24.7c7.9-13.7 14.5-25.1 14.7-25.5 0.1-0.3-6-11.7-13.8-25.2l-14.1-24.6h-10.7c-5.8 0-18.3-0.3-27.7-0.7zm216.1-0.3h-57l-14 24.2c-7.7 13.2-14.2 24.5-14.3 25-0.2 0.5 6 12.1 13.8 25.8l14.2 25h57.6l13.1-22.3c7.1-12.3 13.5-23.5 14.2-24.9 1-2.4 0.1-4.5-13.2-27.7zm178.2 0h-28.6l-28.6 0.1-14 24.2c-7.7 13.3-14 24.7-14 25.4 0 0.6 6.3 12.2 14 25.7l14 24.6 28.4-0.2 28.3-0.3 14.5-24.9c10.9-18.8 14.3-25.4 13.6-26.5-0.5-0.9-6.9-12.1-14.3-24.9zm-444.9 52h-28.3c-21.4 0-28.5 0.3-29.2 1.2-0.5 0.7-7.1 11.9-14.7 24.9l-13.6 23.6 28.6 49.8h57.8l14.2-24.5 14.3-24.5-1.8-3c-1.1-1.6-7.6-13-14.6-25.3zm178 0h-56.3l-14.5 24.9c-8 13.8-14.4 25.3-14.4 25.6 0.1 0.3 6.4 11.6 14 25l13.9 24.4h57l8.1-14.2c4.5-7.8 11-19 14.4-24.9l6.3-10.8-14.3-25zm177.8 0h-56.5l-5.4 9.2c-3 5.1-9.6 16.4-14.6 25.1l-9.3 15.8 14.3 25 14.4 24.9h28l28-0.1 14.5-25.1c8-13.8 14.4-25.5 14.2-26-0.1-0.5-6.4-11.6-13.9-24.8zm178.2 0h-57.3l-14 24.2c-7.7 13.2-14.1 24.8-14.3 25.7-0.1 0.9 6 12.4 13.7 25.6l13.9 24h57.4l14-24c7.7-13.2 14.2-24.5 14.5-25.2 0.2-0.6-5.9-12.2-13.7-25.7zm-711.4 1.5l-28.7-0.3-28.7-0.2-2.3 3.7c-1.2 2.1-7.7 13.2-14.4 24.8l-12.2 21 2.3 4c1.3 2.2 7.8 13.6 14.5 25.3l12.3 21.2 28.6-0.2 28.6-0.3 14.2-24.5 14.3-24.5-3.4-6c-1.8-3.3-8.2-14.6-14.2-25zm594.5 50l-27.7-0.8-2.5 3.9c-1.4 2.2-8.2 13.7-15.1 25.6l-12.6 21.7 14 24.4 14.1 24.4 27.5 0.8c22.7 0.6 27.8 0.5 28.9-0.6 1.8-2 28.8-48.2 28.8-49.4 0-0.7-26.3-47.4-27.7-49.2 0 0-12.5-0.4-27.7-0.8zm148.2 0.9c-0.5 0.6-6.4 10.5-13.1 22.1-6.7 11.5-13 22.4-14 24l-1.9 3 28.6 50 28.9 0.2 28.9 0.3 14-24.2c7.7-13.3 14.1-24.7 14.3-25.4 0.3-1.1-25.8-47.8-27.6-49.5-1.3-1.2-57.2-1.6-58.1-0.5zm-889.8 0.8c-1.4 1.8-26.2 44.4-27.4 47.2-1 2 0.4 5 11.1 23.7 6.7 11.8 13.3 23 14.5 25l2.4 3.7 28.3 0.1 28.3 0.2 14.4-24.8c7.9-13.6 14.4-25.3 14.4-25.8 0-0.6-6.2-11.8-13.8-25.1l-13.8-24.1-10.5-0.7c-18.7-1.1-46.8-0.7-47.9 0.6zm412.7-1.2h-55.9l-5.4 9.2c-3 5.1-9.6 16.4-14.6 25.1l-9.2 15.7 14.2 24.9 14.1 24.8 20.2 0.6c11 0.4 24 0.7 28.7 0.7h8.5l14.6-25 14.5-24.9-12.4-21.8c-6.8-12-13.5-23.5-14.9-25.6zm178.8 0h-57.3l-14.4 24.6c-12.6 21.7-14.2 24.9-13.2 26.8 0.7 1.1 7.1 12.4 14.4 25.1l13.2 23 28.5 0.3 28.6 0.2 14.2-24.4c7.8-13.4 14.2-24.9 14.2-25.4 0-0.5-6.3-12-14.1-25.6zm534.8 0h-28.7c-21.7 0-28.9 0.3-29.6 1.2-1 1.3-24.9 42.3-27.2 46.5-1 2 0.4 4.9 13.1 27.3l14.3 25 28.9-0.3 28.9-0.2 14.4-24.7 14.4-24.8-14.2-25zm-890.1 1.1l-28.6-0.1h-28.6l-14.2 24.3c-7.7 13.4-14.1 24.8-14.1 25.4 0 0.6 6.3 12.2 14.1 25.7l14.1 24.6 28-0.2 28.1-0.3 14.3-24.5c7.9-13.5 14.4-24.9 14.4-25.5 0-0.5-6.2-11.9-13.7-25.2zm621.6 50.4l-28.5-0.3-28.5-0.2-4.2 7.2c-2.4 4-8.8 14.9-14.2 24.3-5.5 9.3-10 17.4-10 18 0 0.5 6.4 12.1 14.2 25.7l14.3 24.8h21.6c11.9 0 24.7 0.3 28.3 0.6l6.5 0.7 14.7-25.3 14.8-25.2-14.5-25.2zm-751.7 0.5h-16.1l-14.4 24.7c-7.9 13.6-14.5 25-14.7 25.4-0.2 0.4 6 11.7 13.8 25.2l14 24.4 28.3 0.6c21.2 0.4 28.5 0.3 29.4-0.6 1.7-1.8 28.6-48 28.6-49.3 0-0.6-6.2-11.9-13.8-25.1l-13.8-24-12.6-0.6c-6.9-0.4-19.8-0.7-28.7-0.7zm218.7 0.5l-28-0.3-28-0.2-1.5 2.2c-3.4 5.4-26.7 45.8-27.2 47.2-0.4 1 4.5 10.7 13.2 26.1l13.9 24.4 28.5 0.1h28.6l14.3-24.5c8.5-14.6 14.1-25.3 13.8-26.3-0.2-0.9-6.5-12.3-14-25.2zm177.5-0.5h-56.1l-14.2 24.4c-7.8 13.3-14.3 24.8-14.5 25.3-0.2 0.6 6 12.1 13.7 25.7l14 24.6h20.6c11.3 0 23.9 0.3 28 0.6l7.4 0.6 14.8-25.6 14.9-25.5-14.3-25.1zm177.8 0.5l-28.5-0.3-28.4-0.2-14 24.1c-7.7 13.3-14.1 24.5-14.3 25-0.2 0.5 6.1 12.1 13.9 25.9l14.3 25h57.4l14.2-24.6 14.3-24.6-2.1-3.6c-1.1-2-7.6-13.4-14.4-25.2zm356.8 0l-28.9-0.3-29-0.2-14.3 24.5c-11.1 19.1-14.1 25-13.4 26.4 0.5 1 7 12.5 14.4 25.5l13.5 23.6h57l14.3-24.5c7.8-13.5 14.2-25 14.2-25.7 0-0.7-6.3-12.1-13.9-25.3zm178.4-0.5h-57.3l-14.6 25-14.5 25 14.1 25 14.2 24.9 29 0.1h29l14.3-24.4c7.8-13.5 14.2-24.8 14.2-25.3 0-0.4-6.4-11.9-14.2-25.6zm-623.7 52.1l-28.1-0.3-28-0.3-6.8 11.5c-15.6 26.6-22 37.9-22 39 0 0.6 6.3 12.1 14.1 25.5l14.1 24.5 28.1-0.2 28.1-0.3 14.3-24.5c7.8-13.5 14.3-24.9 14.3-25.3 0-0.4-6.3-11.8-14.1-25.2zm-356.2-0.1h-56.4l-14.6 25.1-14.7 25.1 14.3 24.9 14.2 24.9 28.9-0.3 28.8-0.2 14.2-24.4 14.3-24.4-14.5-25.3zm178.6 0.5l-28.5-0.3c-22.1-0.2-28.8 0.1-29.5 1-1 1.3-24.9 42.2-27.1 46.4-1 1.9 0.7 5.3 13.1 27l14.3 24.9h57.8l14.2-24.5 14.3-24.5-3.2-5.5c-1.7-3-8.1-14.3-14.3-25zm355.2-0.4l-28.2-0.1h-28.2l-6.9 11.7c-3.8 6.5-10.4 17.7-14.6 25l-7.7 13.1 28.6 50.2h56.3l14.5-25 14.6-25-14.2-25zm178.3-0.1h-57.8l-3 5.2c-1.6 2.9-8 14-14.3 24.7l-11.3 19.5 14.4 25.3 14.5 25.3h57.2l14-24.2c7.7-13.2 14.1-24.6 14.3-25.3 0.1-0.6-6.1-12.2-13.8-25.8zm178.6 0.5l-29-0.2-28.9-0.3-14 24.3c-7.7 13.3-14 24.7-14 25.4 0 0.7 6.3 12.2 14 25.7l14 24.6 28.9-0.3 28.8-0.2 14.4-24.6 14.3-24.6-14.2-24.9zm-503.3 51.9c-0.4 0.6-6.9 11.8-14.5 24.8l-13.7 23.7 14.6 25.5 14.7 25.6h56.4l14.2-24.4c7.8-13.4 14.2-24.9 14.2-25.5 0-1.1-26.5-48-27.8-49.2-1.3-1.2-57.2-1.6-58.1-0.5zm235.4-0.9l-28-0.3-28-0.4-13.5 23.3c-7.4 12.8-14 24.2-14.7 25.4-1 1.9 0.5 5 13.2 27l14.3 25 27.9 0.3 28 0.4 14.7-25.3c12.6-21.8 14.5-25.6 13.6-27.4-0.6-1.1-7-12.4-14.3-25zm-711.2 1l-29.1-0.3-29-0.2-13.3 22.7c-7.3 12.6-13.8 23.7-14.5 24.8-1.2 1.8 0.2 4.7 13 27l14.3 25 28.9 0.2 28.9 0.3 14-24.2c7.7-13.2 14.1-24.7 14.3-25.4 0.2-0.7-6-12.2-13.6-25.6zm177.5-0.5h-56.6l-14.6 25.1-14.6 25 14.3 24.9 14.2 25 28.9-0.3 28.9-0.2 28.6-49-1.9-3c-1-1.6-7.5-13-14.5-25.3zm142.2 0h-20.6l-14.5 25.1-14.6 25 14.1 24.7 14.2 24.7 8.9 0.8c5 0.4 18 0.6 28.9 0.5l20-0.3 28.6-49.2-14.2-25-14.3-25-8-0.7c-4.4-0.3-17.2-0.6-28.5-0.6zm569.8 0h-57.3l-14 24.1c-7.7 13.3-14.1 24.5-14.3 25-0.2 0.5 6.1 12.1 13.9 25.9l14.3 25h57.5l14.4-24.8 14.5-24.7-2.3-4c-1.2-2.2-7.7-13.6-14.4-25.3zm-89.3 51.5l-28.5-0.2-28.5-0.3-14.3 24.6c-10.8 18.6-14.2 25.1-13.5 26.4 0.4 1 6.9 12.3 14.2 25.2l13.5 23.5 27.9 0.8c22.9 0.6 28.2 0.5 29.2-0.6 1.3-1.5 25.9-43.4 27.6-47.2 0.9-2-0.9-5.7-13.3-27.2zm-711.1 1l-29-0.2-28.9-0.3-14.2 24.5c-7.9 13.4-14.3 24.9-14.3 25.4 0 0.5 6.3 11.9 14.1 25.5l14.1 24.6h57.6l13.3-22.8c7.3-12.5 13.8-23.6 14.5-24.7 1.2-1.9 0-4.5-12.9-27zm178.1-0.4l-28.6-0.1h-28.7l-13.7 23.5c-7.5 13-13.9 24.4-14.2 25.3-0.2 1 5.4 12 13.7 26.5l14.2 24.7 28.6-0.2 28.5-0.3 14.4-24.7 14.4-24.6-14.3-25.1zm177.3-0.1h-27.9c-27.8 0-27.9 0-29.3 2.2-3.3 5.3-26.6 45.8-27.2 47.1-0.3 1 4.9 11.1 13.1 25.4 7.5 13.1 14 24.1 14.3 24.5 0.4 0.4 13.3 0.8 28.7 0.8l28 0.1 14.2-24.3c7.9-13.4 14.3-24.8 14.3-25.4 0-0.7-6.3-12.2-14.1-25.8zm177.8 0h-56.5l-7.1 12c-7.7 13.2-21.1 36.2-21.6 37.1-0.2 0.3 6.1 11.8 13.9 25.5l14.3 24.9h57.8l14.2-24.2 14.2-24.3zm-444.2 52.5l-28.6-0.3-28.6-0.2-11.8 20.2c-6.5 11.2-13 22.4-14.5 25l-2.7 4.6 14.2 24.9 14.3 24.8 28.9 0.2 28.9 0.3 28.6-49.2-14.3-25.2zm178.1-0.5h-57.2l-14.2 24.5c-7.9 13.4-14.1 25-13.9 25.8 0.2 0.7 6.6 12.2 14.2 25.5l13.9 24.2 28.5-0.2 28.4-0.3 28.8-49.4-14.2-25.1zm178 0.1l-28.2-0.1c-28.2 0-28.3 0-29.7 2.2-3.1 5-26.6 45.7-27.1 47-0.3 0.8 5.8 12.5 13.5 26.1l14.2 24.7h56.4l14.1-24.3c7.8-13.3 14.3-24.7 14.5-25.3 0.2-0.6-6-12.1-13.7-25.7zm177.2-0.1h-56.3l-14.2 24.4c-7.8 13.4-14.2 25-14.2 25.8 0.1 0.7 6.3 12.1 13.9 25.3l13.9 24h57.7l14.1-24.3 14.2-24.3-14.5-25.4zm-622.2 52h-58l-13.5 23.1c-7.4 12.8-13.9 24-14.4 25-0.6 1.3 2.5 7.6 13.5 26.8l14.3 25.1h57.4l29.2-50-14.3-25zm178 0.5l-28.5-0.2-28.5-0.3-14 24.2c-7.7 13.3-14.1 24.7-14.3 25.4-0.2 0.7 6 12.2 13.6 25.6l13.9 24.3 28.4 0.2 28.4 0.3 29.2-50.4-14.1-24.5zm177.9 0l-28.5-0.3-28.6-0.2-14.5 24.9-14.6 25 28.4 49.6h57.6l12-20.5c6.5-11.3 13-22.3 14.3-24.6l2.4-4.1-14.2-24.9zm178.1-0.5h-28.7c-28.7 0-28.8 0-30.2 2.2-0.8 1.3-7.3 12.4-14.5 24.8-11.8 20.2-12.9 22.6-11.8 24.5 0.7 1.1 7.3 12.5 14.6 25.2l13.3 23.3h56.4l14.2-24.4c7.7-13.4 14.2-24.8 14.4-25.3 0.2-0.6-6-12.1-13.7-25.7zm178.8 0.5l-29-0.3-28.9-0.2-14.2 24.4c-7.8 13.5-14.2 25.1-14.1 25.8 0 0.7 6.2 12.1 13.8 25.3l13.8 24h57.8l14.2-24.5c7.9-13.4 14.3-24.9 14.2-25.5 0-0.5-6.2-11.8-13.8-25zm-89.8 51.6l-28.3-0.3c-24.2-0.3-28.5-0.1-29.6 1.2-1.2 1.3-24.4 40.9-27.5 46.8-1.1 2 0.3 4.7 13.1 27.2l14.3 25h57.1l14.4-24.7c7.9-13.6 14.3-25.2 14.3-25.8 0-0.5-6.2-11.9-13.9-25.2zm-534-0.1h-57.4l-5.4 9.2c-3 5.1-9.6 16.4-14.6 25.1l-9.2 15.8 14.3 24.9 14.3 25 29-0.1h29l12.5-21.6c6.9-11.9 13.4-23.1 14.4-24.8l1.9-3.3zm178 0h-57l-14.5 25.1c-8 13.8-14.4 25.5-14.2 26 0.4 1.7 25.5 45.3 27 47.1 1.3 1.5 4.4 1.7 29.6 1.7l28.1 0.1 14.4-24.9c8-13.7 14.5-25.1 14.5-25.4 0.1-0.3-6.2-11.6-13.9-25.1zm178 0.1h-28.7l-28.6-0.1-8.3 14.2c-4.5 7.9-11.1 19.1-14.5 24.9l-6.2 10.6 14.3 24.9 14.2 24.9 28.9 0.3 28.9 0.2 14-24.1c7.7-13.3 14-24.7 14-25.3 0-0.7-6.3-12.3-14-25.8zm356.9 0.4l-29-0.3-29-0.2-14.2 24.4c-7.8 13.4-14.2 24.9-14.2 25.4 0 0.5 6.3 12 14.1 25.6l14.1 24.6h57.5l14.5-25 14.5-24.9-14.1-24.8zm-487.1 50.5h-16.1l-14.6 25c-8 13.7-14.6 25.3-14.6 25.7 0 0.5 6.3 11.6 13.8 24.8l13.8 24 12 0.6c6.5 0.4 19.6 0.7 29.1 0.8l17.1 0.1 29.2-50.2-14.2-24.8-14.2-24.7-12.6-0.7c-6.9-0.3-19.8-0.6-28.7-0.6zm352.7 0.4l-12.5-0.7-14.4 24.9c-7.9 13.7-14.6 25.2-14.8 25.6-0.3 0.6 20.1 37.2 26.4 47.1l2.3 3.7 28.7-0.2 28.6-0.3 14.4-24.7 14.5-24.8-28.6-50h-16.1c-8.8 0-21.6-0.3-28.5-0.6z"/></svg>